<?xml version="1.0" encoding="UTF-8" standalone="no"?>
<svg width="24px" height="24px" viewBox="0 0 24 24" version="1.1" xmlns="http://www.w3.org/2000/svg" xmlns:xlink="http://www.w3.org/1999/xlink" xmlns:sketch="http://www.bohemiancoding.com/sketch/ns">
    <!-- Generator: Sketch 3.4.2 (15857) - http://www.bohemiancoding.com/sketch -->
    <title>ic_library_newsstand_24px</title>
    <desc>Created with Sketch.</desc>
    <defs></defs>
    <g id="Page-1" stroke="none" stroke-width="1" fill="none" fill-rule="evenodd" sketch:type="MSPage">
        <g id="Drawer-(SVG)" sketch:type="MSLayerGroup" transform="translate(-341.000000, -16.000000)" fill="#000000">
            <g id="ic_library_newsstand_24px" transform="translate(341.000000, 16.000000)" sketch:type="MSShapeGroup">
                <path d="M4,6 L2,6 L2,20 C2,21.1 2.9,22 4,22 L18,22 L18,20 L4,20 L4,6 L4,6 Z M20,2 L8,2 C6.9,2 6,2.9 6,4 L6,16 C6,17.1 6.9,18 8,18 L20,18 C21.1,18 22,17.1 22,16 L22,4 C22,2.9 21.1,2 20,2 L20,2 Z M19,15 L9,15 L9,13 L19,13 L19,15 L19,15 Z M19,11 L9,11 L9,5 L19,5 L19,11 L19,11 Z" id="Shape"></path>
            </g>
        </g>
    </g>
</svg>