<?xml version="1.0" encoding="UTF-8" standalone="no"?>
<svg width="24px" height="24px" viewBox="0 0 24 24" version="1.1" xmlns="http://www.w3.org/2000/svg" xmlns:xlink="http://www.w3.org/1999/xlink" xmlns:sketch="http://www.bohemiancoding.com/sketch/ns">
    <!-- Generator: Sketch 3.4.2 (15857) - http://www.bohemiancoding.com/sketch -->
    <title>ic_library_apps_24px</title>
    <desc>Created with Sketch.</desc>
    <defs></defs>
    <g id="Page-1" stroke="none" stroke-width="1" fill="none" fill-rule="evenodd" sketch:type="MSPage">
        <g id="Drawer-Copy" sketch:type="MSLayerGroup" transform="translate(-34.000000, -16.000000)" fill="#000000">
            <g id="ic_library_apps_24px" transform="translate(34.000000, 16.000000)" sketch:type="MSShapeGroup">
                <path d="M4,6 L2,6 L2,20 C2,21.1 2.9,22 4,22 L18,22 L18,20 L4,20 L4,6 L4,6 Z M8,2 C6.9,2 6,2.9 6,4 L6,16 C6,17.1 6.9,18 8,18 L20,18 C21.1,18 22,17.1 22,16 L22,4 C22,2.9 21.1,2 20,2 L8,2 Z M19,14.2 C19,14.65 18.6666667,15 18.2888889,15 L9.71111111,15 C9.31111111,15 9,14.65 9,14.2 L9,11 L19,11 L19,14.2 L19,14.2 Z M9,10 C9,8.33972032 9.82222222,6.90081126 11.0888889,5.9931917 L10.1555556,4.48787146 C10.1111111,4.42146027 10.0888889,4.33291202 10.1111111,4.24436377 C10.1333333,4.15581552 10.1777778,4.08940433 10.2444444,4.04513021 C10.3777778,3.95658196 10.6,4.00085608 10.6888889,4.15581552 L11.6222222,5.66113577 C12.3333333,5.2848057 13.1333333,5.06343508 14,5.06343508 C14.8666667,5.06343508 15.6666667,5.2848057 16.3777778,5.66113577 L17.3111111,4.15581552 C17.4,4.02299315 17.6,3.95658196 17.7555556,4.04513021 C17.8222222,4.08940433 17.8666667,4.15581552 17.8888889,4.24436377 C17.9111111,4.33291202 17.8888889,4.39932321 17.8444444,4.48787146 L16.9111111,5.9931917 C18.1777778,6.90081126 19,8.33972032 19,10 L9,10 L9,10 Z M11.9777018,8.70000005 C12.4661047,8.70000005 12.8620334,8.31944207 12.8620334,7.85000002 C12.8620334,7.38055797 12.4661047,7 11.9777018,7 C11.489299,7 11.0933702,7.38055797 11.0933702,7.85000002 C11.0933702,8.31944207 11.489299,8.70000005 11.9777018,8.70000005 Z M16.2446018,8.70000005 C16.7330046,8.70000005 17.1289334,8.31944207 17.1289334,7.85000002 C17.1289334,7.38055797 16.7330046,7 16.2446018,7 C15.7561989,7 15.3602702,7.38055797 15.3602702,7.85000002 C15.3602702,8.31944207 15.7561989,8.70000005 16.2446018,8.70000005 Z" id="Shape"></path>
            </g>
        </g>
    </g>
</svg>