<?xml version="1.0" encoding="UTF-8" standalone="no"?>
<svg width="24px" height="24px" viewBox="0 0 24 24" version="1.1" xmlns="http://www.w3.org/2000/svg" xmlns:xlink="http://www.w3.org/1999/xlink" xmlns:sketch="http://www.bohemiancoding.com/sketch/ns">
    <!-- Generator: Sketch 3.4.2 (15857) - http://www.bohemiancoding.com/sketch -->
    <title>ic_library_movies_24px</title>
    <desc>Created with Sketch.</desc>
    <defs></defs>
    <g id="Page-1" stroke="none" stroke-width="1" fill="none" fill-rule="evenodd" sketch:type="MSPage">
        <g id="Drawer-Copy" sketch:type="MSLayerGroup" transform="translate(-137.000000, -16.000000)" fill="#000000">
            <g id="ic_library_movies_24px" transform="translate(137.000000, 16.000000)" sketch:type="MSShapeGroup">
                <path d="M4,6 L2,6 L2,20 C2,21.1 2.9,22 4,22 L18,22 L18,20 L4,20 L4,6 L4,6 Z M20,2 L8,2 C6.9,2 6,2.9 6,4 L6,16 C6,17.1 6.9,18 8,18 L20,18 C21.1,18 22,17.1 22,16 L22,4 C22,2.9 21.1,2 20,2 L20,2 Z M10,11 L8,11 L8,9 L10,9 L10,11 L10,11 Z M10,15 L8,15 L8,13 L10,13 L10,15 L10,15 Z M10,7 L8,7 L8,5 L10,5 L10,7 L10,7 Z M20,11 L18,11 L18,9 L20,9 L20,11 L20,11 Z M20,15 L18,15 L18,13 L20,13 L20,15 L20,15 Z M20,7 L18,7 L18,5 L20,5 L20,7 L20,7 Z" id="Shape"></path>
            </g>
        </g>
    </g>
</svg>