<?xml version="1.0" encoding="UTF-8" standalone="no"?>
<svg width="24px" height="24px" viewBox="0 0 24 24" version="1.1" xmlns="http://www.w3.org/2000/svg" xmlns:xlink="http://www.w3.org/1999/xlink" xmlns:sketch="http://www.bohemiancoding.com/sketch/ns">
    <!-- Generator: Sketch 3.5.2 (25235) - http://www.bohemiancoding.com/sketch -->
    <title>ic_play_apps_24px</title>
    <desc>Created with Sketch.</desc>
    <defs></defs>
    <g id="Page-1" stroke="none" stroke-width="1" fill="none" fill-rule="evenodd" sketch:type="MSPage">
        <path d="M7.5,11.0569323 C8.3,11.0569323 9,10.3605553 9,9.56469581 C9,8.76883634 8.3,8.07245931 7.5,8.07245931 C6.7,8.07245931 6,8.76883634 6,9.56469581 C6,10.3605553 6.7,11.0569323 7.5,11.0569323 L7.5,11.0569323 Z M16.5,11.0569323 C17.3,11.0569323 18,10.3605553 18,9.56469581 C18,8.76883634 17.3,8.07245931 16.5,8.07245931 C15.7,8.07245931 15,8.76883634 15,9.56469581 C15,10.3605553 15.7,11.0569323 16.5,11.0569323 L16.5,11.0569323 Z M2,20.0103513 C2,21.0051757 3,22 4,22 L20,22 C21,22 22,21.0051757 22,20.0103513 L22,15.0362297 L2,15.0362297 L2,20.0103513 L2,20.0103513 Z M6,6.08281064 C3.6,7.87349444 2,10.758485 2,14.0414053 L22,14.0414053 C22,10.758485 20.4,7.87349444 18,6.08281064 L19.9,2.89937277 C20.1,2.60092547 20,2.30247817 19.7,2.1035133 C19.4,1.90454843 19.1,2.00403086 18.9,2.30247817 L17,5.3864336 C15.6,4.59057414 13.8,4.09316197 12,4.09316197 C10.2,4.09316197 8.4,4.59057414 6.9,5.48591604 L5.1,2.4019606 C4.9,2.1035133 4.6,2.00403086 4.3,2.20299573 C4,2.30247817 3.9,2.7004079 4.1,2.89937277 L6,6.08281064 L6,6.08281064 Z" id="Shape" fill="#000000" sketch:type="MSShapeGroup"></path>
    </g>
</svg>